<svg version="1.1" id="Layer_1" xmlns="http://www.w3.org/2000/svg" xmlns:xlink="http://www.w3.org/1999/xlink" x="0px" y="0px"
	 width="100%" viewBox="0 0 800 800" enable-background="new 0 0 800 800" xml:space="preserve">
<path fill="#000000" opacity="1.000000" stroke="none" 
	d="
M512.468628,801.000000 
	C521.137878,797.076660 530.831970,794.828979 540.229736,791.685425 
	C560.757385,784.818848 580.301819,775.780762 599.508179,765.898560 
	C603.109619,764.045471 602.433960,762.221375 600.602905,759.679016 
	C585.481750,738.683899 570.359802,717.689148 555.310730,696.642334 
	C536.882812,670.870178 518.576843,645.010681 500.123413,619.256836 
	C480.412872,591.748596 460.559387,564.342834 440.828094,536.849426 
	C419.744751,507.472260 398.729431,478.046234 377.687836,448.639069 
	C357.321167,420.175262 336.970367,391.700043 316.578522,363.254272 
	C314.283234,360.052399 311.766510,357.009247 309.117188,353.588745 
	C307.957184,356.317993 308.360016,358.648834 308.359222,360.905426 
	C308.334106,432.900696 308.341095,504.895966 308.340393,576.891235 
	C308.340302,584.318909 308.332153,584.328674 301.122742,584.341919 
	C292.456635,584.357788 283.790192,584.406860 275.124542,584.346924 
	C264.517975,584.273621 265.670837,585.540649 265.667999,575.127747 
	C265.640900,475.300934 265.651001,375.474121 265.651001,275.647308 
	C265.651001,274.147430 265.781433,272.635406 265.636353,271.150055 
	C265.287598,267.579956 266.991821,266.562897 270.338928,266.601318 
	C281.670013,266.731354 293.004852,266.750214 304.335236,266.594574 
	C307.666199,266.548859 309.461609,268.159241 311.140900,270.685486 
	C338.294342,311.533966 365.485321,352.357513 392.690308,393.171692 
	C414.722809,426.225952 436.839020,459.224579 458.821014,492.312378 
	C487.114014,534.899536 515.237793,577.599243 543.573914,620.157532 
	C561.501648,647.083374 579.732361,673.807251 597.732544,700.685120 
	C607.426636,715.160339 617.034180,729.696838 626.419250,744.372925 
	C628.521240,747.660156 629.998718,747.707397 632.962036,745.610779 
	C650.447388,733.240234 667.381836,720.261414 683.311523,705.851624 
	C706.594360,684.790161 726.543823,660.898254 744.219055,635.196228 
	C759.255920,613.330872 771.948975,590.045410 782.114197,565.352295 
	C789.140564,548.284058 794.994507,530.902771 800.641724,513.138550 
	C801.000000,608.927185 801.000000,704.854370 801.000000,801.000000 
	C704.979187,801.000000 608.958252,801.000000 512.468628,801.000000 
z"/>
<path fill="#000000" opacity="1.000000" stroke="none" 
	d="
M380.531342,1.000000 
	C379.894165,2.261491 378.409943,2.293144 376.885986,2.355789 
	C357.789520,3.140782 339.062317,6.510406 320.399719,10.381765 
	C300.565491,14.496171 281.180176,20.274025 262.350128,27.582123 
	C237.278580,37.312611 213.042389,48.900883 190.406738,63.605274 
	C170.926315,76.259987 152.479385,90.159279 135.152863,105.730858 
	C107.926117,130.199905 84.273201,157.633698 64.702370,188.444016 
	C42.249226,223.791962 24.999886,261.556396 14.300326,302.219574 
	C8.855683,322.911682 5.300416,343.907410 2.415268,365.056519 
	C2.037774,367.823700 3.053490,370.729431 1.289002,373.692139 
	C1.000000,249.738922 1.000000,125.477829 1.000000,1.000000 
	C127.354149,1.000000 253.708420,1.000000 380.531342,1.000000 
z"/>
<path fill="#000000" opacity="1.000000" stroke="none" 
	d="
M801.000000,303.531342 
	C798.056580,298.030914 796.800476,291.487457 794.877441,285.197296 
	C788.455750,264.192169 780.072693,244.023880 770.257874,224.410156 
	C756.093628,196.104889 738.665771,169.904510 718.384583,145.685440 
	C705.593994,130.411438 691.889954,115.901985 676.769775,102.831169 
	C650.324707,79.970375 621.814819,60.091648 590.557251,44.393982 
	C555.554016,26.815174 518.731445,14.435345 480.160126,7.407013 
	C465.348877,4.708155 450.405609,3.007635 435.203430,1.386290 
	C556.920166,1.000000 678.840393,1.000000 801.000000,1.000000 
	C801.000000,101.687431 801.000000,202.375061 801.000000,303.531342 
z"/>
<path fill="#000000" opacity="1.000000" stroke="none" 
	d="
M1.000000,435.468658 
	C4.003745,439.449036 2.663471,444.725342 3.087785,449.457825 
	C5.271714,473.815765 10.267878,497.570251 16.990847,520.983948 
	C25.166113,549.455627 36.362240,576.676392 50.739655,602.658447 
	C60.646194,620.560974 71.782646,637.558655 84.029404,653.903564 
	C97.208694,671.493103 112.060539,687.566895 127.952919,702.680481 
	C145.157333,719.041809 163.739136,733.649597 183.502365,746.887695 
	C207.064392,762.670227 232.131989,775.411377 258.310699,786.049194 
	C272.122925,791.661865 286.456604,795.858826 300.843781,800.649048 
	C201.065704,801.000000 101.131401,801.000000 1.000000,801.000000 
	C1.000000,679.312500 1.000000,557.624939 1.000000,435.468658 
z"/>
<path fill="#000000" opacity="1.000000" stroke="none" 
	d="
M547.348877,278.018921 
	C547.349121,363.729248 547.349121,448.941650 547.349121,534.036865 
	C544.866028,534.637878 544.604126,532.936401 543.951660,531.953918 
	C530.192505,511.236298 516.484619,490.484619 502.725372,469.767029 
	C501.287872,467.602509 500.638702,465.350922 500.639984,462.750916 
	C500.671051,399.137695 500.695923,335.524445 500.584656,271.911407 
	C500.577271,267.695984 502.024872,266.501221 506.070557,266.576263 
	C517.556946,266.789307 529.049866,266.639404 540.540222,266.653473 
	C547.325012,266.661774 547.325684,266.679688 547.347107,273.524506 
	C547.351318,274.856689 547.348267,276.188873 547.348877,278.018921 
z"/>
</svg>